<svg width="166" height="45" viewBox="0 0 166 45" fill="none" xmlns="http://www.w3.org/2000/svg">
<path fill-rule="evenodd" clip-rule="evenodd" d="M58.0001 2.09582C55.8687 8.80849 48.7008 17.4409 40.5705 23.0876C33.9153 27.7096 24.7404 31.4975 17.2994 32.6957C15.5055 32.9843 13.683 34.6272 13.683 35.9555C13.683 37.0682 13.6525 37.0657 18.2313 36.3131C35.6681 33.4468 52.4663 21.8568 59.8139 7.62267C60.7545 5.80048 61.5241 3.84568 61.5241 3.27871C61.5241 2.20103 59.91 0 59.1196 0C58.8699 0 58.3662 0.943245 58.0001 2.09582ZM1.77928 4.29794C1.13964 4.71221 0.498496 6.07082 0.500003 7.00822C0.501886 8.17029 1.6271 9.87229 4.77896 13.482C9.1728 18.5142 16.2887 24.0257 22.27 27.0297C25.0926 28.4471 25.6957 28.4815 28.351 27.3735L30.3811 26.5267L27.0236 25.0121C18.2257 21.0433 11.2051 15.5577 5.62314 8.2901C4.513 6.84492 3.40851 5.29233 3.16856 4.84043C2.70559 3.96806 2.44566 3.8665 1.77928 4.29794ZM1.43535 14.9874C0.372678 16.9795 0.893282 18.1237 4.36082 21.4199C7.97527 24.8553 11.1829 27.4418 13.9889 29.184C15.837 30.3314 16.1399 30.4052 18.1552 30.201C19.3505 30.0797 20.7281 29.8375 21.2163 29.6622C22.0285 29.371 21.8254 29.1851 18.8333 27.4772C13.9588 24.6946 10.1786 21.8057 5.89964 17.5914L2.06181 13.8122L1.43535 14.9874ZM47.8634 25.0154C43.6236 28.4128 39.3006 31.1033 34.3862 33.4023C30.6154 35.1664 23.9263 37.4978 20.7315 38.1612C19.6831 38.3786 19.682 38.3819 20.3228 39.4336C21.008 40.5584 22.2666 41.2807 23.5413 41.2807C24.8236 41.2807 31.7579 38.9028 35.7446 37.0963C40.2247 35.0659 47.0686 30.7132 49.9824 28.0409C51.572 26.5833 52.1066 25.8373 52.1066 25.0778C52.1066 24.0089 51.5133 22.6419 51.0575 22.6605C50.9094 22.6667 49.4719 23.7262 47.8634 25.0154ZM38.1686 38.7198C37.8579 38.9123 35.6542 39.8442 33.2715 40.7911C30.8889 41.7377 28.8931 42.5403 28.8362 42.5746C28.524 42.7646 29.3218 43.8773 30.1468 44.4012C31.5937 45.3207 33.232 45.1917 35.9868 43.9416C38.7936 42.6678 39.7843 41.5294 39.6073 39.7821C39.4765 38.4926 39.0475 38.1758 38.1686 38.7198Z" fill="#EEEEEE"/>
<path d="M86.0064 14.2434H91.1383V37.875H86.0064V28.1027H77.0671V37.875H71.9353V14.2434H77.0671V23.3566H86.0064V14.2434Z" fill="#EEEEEE"/>
<path d="M110.904 19.6157H114.612V37.842H110.722L110.292 36.2106C108.625 37.6608 106.65 38.3859 104.365 38.3859C102.555 38.3859 100.916 37.9684 99.4485 37.1334C97.9807 36.2985 96.8329 35.1449 96.0052 33.6727C95.1775 32.1896 94.7636 30.5416 94.7636 28.7289C94.7636 26.9271 95.1775 25.2957 96.0052 23.8345C96.8329 22.3623 97.9807 21.2142 99.4485 20.3903C100.916 19.5553 102.555 19.1378 104.365 19.1378C106.694 19.1378 108.697 19.8794 110.374 21.3625L110.904 19.6157ZM101.187 32.3049C102.136 33.2498 103.328 33.7222 104.762 33.7222C106.197 33.7222 107.384 33.2498 108.322 32.3049C109.271 31.3601 109.745 30.1681 109.745 28.7289C109.745 27.2897 109.271 26.0977 108.322 25.1528C107.384 24.208 106.197 23.7356 104.762 23.7356C103.328 23.7356 102.136 24.2135 101.187 25.1693C100.249 26.1141 99.7796 27.3007 99.7796 28.7289C99.7796 30.1571 100.249 31.3491 101.187 32.3049Z" fill="#EEEEEE"/>
<path d="M140.635 19.6487H145.536L139.543 37.875H135.57L131.415 28.4487L127.359 37.875H123.369L117.311 19.6487H122.343L125.952 30.5087L130.719 19.7805H132.11L137.027 30.5416L140.635 19.6487Z" fill="#EEEEEE"/>
<path d="M165.5 37.875H159.507L153.647 29.1573V37.875H148.697V13.0734H153.647V27.7401L159.143 19.6487H164.838L158.647 28.3334L165.5 37.875Z" fill="#EEEEEE"/>
</svg>
